<svg id="shapes_bw_Image" data-name="shapes bw Image" xmlns="http://www.w3.org/2000/svg" viewBox="0 0 1152 942.48"><defs><style>.cls-1{fill:#5071b7;}.cls-2{fill:#23584b;}.cls-3{fill:#fff;}.cls-4{fill:#f26722;}</style></defs><title>Artboard 1</title><path class="cls-1" d="M486.72.72h666v439.2c-.88.31-1.77.59-2.62.95-6.25,2.61-12.35,5.67-18.75,7.78-12.88,4.25-25.94,7.91-38.87,12-4.82,1.51-9.4,3.78-14.24,5.16-14.43,4.12-29,8-43.41,12a12,12,0,0,0-3,1.67c-1.06.67-2,1.84-3.13,2.09-5.93,1.3-11.93,2.29-17.88,3.53-10.25,2.15-20.43,4.72-30.75,6.51-9.75,1.69-19.64,2.58-29.45,3.89q-23.75,3.18-47.46,6.47c-2.73.38-6.47,0-7.92,1.57-2.62,2.9-5.77,2.42-8.5,2.59q-25.1,1.5-50.22,2.21c-10.55.31-21.11.1-31.67,0-23-.14-46-.37-69-.5-3.79,0-7.62.66-11.38.33-7.1-.64-14.16-1.82-21.25-2.68-5.67-.7-11.45-.79-17-2-8.81-1.88-17.5-4.37-26.2-6.76-5.81-1.59-12-2.54-17.24-5.34-13.11-7.07-25.75-15-38.56-22.65a13,13,0,0,1-3.49-2.46c-11.08-13.61-22.15-27.23-33.07-41-3.62-4.55-7.35-9.16-10-14.29-3.14-6.07-5.09-12.76-7.71-19.13-7.19-17.45-15.17-34.6-19.75-53-2.4-9.65-5.28-19.19-7.36-28.91-2.28-10.68-3.87-21.51-5.78-32.28-1.43-8.06-3.18-16.09-4.28-24.2-1.53-11.34-2.64-22.74-3.82-34.13q-1.83-17.81-3.43-35.63c-.66-7.38-.91-14.8-1.71-22.16-.89-8.17-2.29-16.29-3.31-24.46-1.56-12.63-3.13-25.27-4.43-37.94-1.56-15.21-2.85-30.44-4.25-45.67-.78-8.44-1.54-16.88-2.34-25.32C488.54,19,487.62,9.85,486.72.72Z"/><path class="cls-2" d="M1152.72,517.68V943.2H451.44a22.63,22.63,0,0,1,3.43-.54c8.36,0,16.72,0,24.95,0,2-8.83,4-17.24,5.83-25.67,1.23-5.63,2.56-11.27,3.27-17,.74-6,2.07-11.9.92-18.19-1.07-5.88-.54-12-.66-18.1-.09-4.59-.08-9.18-.17-13.76-.12-6.12-.14-12.26-.51-18.36-.41-7-1.2-13.89-1.76-20.83-.12-1.48.16-3,.06-4.47-.71-10.85-1.49-21.69-2.2-32.54-.11-1.55,0-3.11,0-4.67-.13-6.13,0-12.27-.5-18.38-.4-5.25-1.88-10.44-2.06-15.69-.21-6.15,1.26-12.33-.32-18.49a31.4,31.4,0,0,1-1.14-7c-.05-1.8.86-3.62,1-5.45.35-6,.42-12.09.82-18.13.33-5,1.19-10,1.36-15,.07-2-1.38-3.9-1.65-5.91-.38-2.9,0-5.9-.51-8.76-1.53-9.17-3.85-18.24-4.82-27.46-.72-6.79.2-13.76.39-20.65a14.68,14.68,0,0,0,.12-1.74c-.43-4.82-1-9.63-1.31-14.45-.36-5.79-.43-11.6-.72-17.39s-.69-11.5-1-17.25c0-.57,0-1.14,0-1.7-.37-5.09-.71-10.17-1.16-15.25-.14-1.59-.7-3.14-.91-4.73-.34-2.63-.68-5.27-.78-7.92-.15-4.42-.12-8.85-.16-13.57,7.63-.48,16.28-1.1,24.93-1.55,7.16-.36,14.34-.42,21.5-.77,18.14-.9,36.27-2.34,54.42-2.7,13.37-.27,26.77,1.17,40.15,1.21,22.49.06,45-.54,67.47-.58,13.17,0,26.33.54,39.5.76,5.83.09,11.67-.21,17.49,0,11.24.34,22.46,1.26,33.69,1.28,14.22,0,28.44-.59,42.65-1,4.16-.13,8.32-1,12.45-.87,8.44.36,16.84,1.47,25.28,1.76,7.27.24,14.58-.57,21.84-.3,7.85.29,15.66,1.63,23.5,1.9,14.35.5,28.71.64,43.07.76,5.24,0,10.49-.66,15.73-.55,4.72.1,9.42,1.11,14.15,1.25,12.67.39,25.35.43,38,.82,6.85.22,13.69,1.21,20.54,1.27s13.77-.52,20.75-.15c14.8.79,29.67.24,44.52.39,7.25.08,14.51.46,21.76.77a13.69,13.69,0,0,1,2.74.72c1.65.43,3.29,1.21,4.94,1.2,5.3,0,10.6-.37,15.91-.55,1.91-.06,3.83,0,5.74,0l-.06-.36Z"/><path class="cls-3" d="M2.32,752.68H3.59c0,7.42-.07,14.85,0,22.28.06,4.39,1.89,5.85,6.34,5.38,2.62-.28,5.23-.69,7.85-1,14.72-1.49,29.45-2.94,44.18-4.44,7.37-.74,14.72-1.65,22.09-2.3,9.86-.88,19.76-1.4,29.61-2.42,4.84-.51,9.56-2.08,14.4-2.71,8.22-1.07,16.55-1.44,24.74-2.71,8.91-1.4,17.69-3.6,26.56-5.26,12.16-2.26,24.44-4,36.51-6.65,8.31-1.84,16.34-4.94,24.5-7.46,2.79-.85,5.59-1.67,8.42-2.42,1.25-.34,2.68-.2,3.83-.72A75,75,0,0,1,269,736.74c6.22-1.25,12.1-4.28,18.08-6.63,4-1.55,8.35-2.63,11.73-5.05,6.44-4.61,13.77-6.71,21.07-9,1.91-.61,4-.52,5.94-1.15,7.33-2.42,14.65-4.84,20.95-9.62,5.59-4.25,11.48-8.1,17.11-12.29,4.56-3.38,8.54-7.78,13.49-10.36,8.69-4.54,14.63-12,20.92-18.84,4.7-5.13,7.32-12.14,11.08-18.18a102.44,102.44,0,0,1,6.78-9.18c1.69-2.14,3.68-4,5.37-6.15,3.1-3.89,6.18-7.81,9-11.87,2.39-3.38,5.09-6.75,6.49-10.55,1.31-3.53,2.34-7,4.26-10.39a104.75,104.75,0,0,0,7.1-16.57c1.81-5.1,3-10.44,4.44-15.67a9.87,9.87,0,0,1,1.19-2.94,24.5,24.5,0,0,0,4.26-17.61c-.86-5.94,1.93-10.8,2.42-16.27.66-7.34,3.58-14.5,4.06-21.83.37-5.61,3.84-11.27.57-17-.12-.21.23-.66.27-1,.35-3.41,1.14-6.43-1.38-10-1.47-2.1,1-6.64.78-10-.52-7.52-1.59-15-2.5-22.5-1-8.09-1.81-16.21-3.17-24.23-.73-4.35.27-8.89-2.25-13.14-1.4-2.37-.92-5.78-1.72-8.6-1.7-6-3.82-11.87-5.5-17.87-1.14-4.09-1.56-8.39-2.76-12.46-1.43-4.9-2.79-10-5.24-14.37a24.74,24.74,0,0,1-3.56-11.43,6.3,6.3,0,0,0-.83-2.32c-2.55-5.24-5.16-10.46-7.68-15.72-4.81-10.06-9.43-20.2-14.42-30.17-2-4-5.29-7.42-7.07-11.51-3.32-7.63-6.4-15.15-11.5-22-7.75-10.45-15.3-21-24.78-29.94-3.44-3.26-6.7-6.71-10.17-9.93-2.33-2.15-5.11-3.84-7.34-6.08-5.2-5.24-10-10.91-15.33-16A168,168,0,0,0,308,176.83c-1.52-.89-3.43-1.35-4.61-2.55-7.79-7.94-17.66-12.93-26.67-19.14-1.45-1-3.26-1.49-4.73-2.47-3.93-2.64-7.54-5.84-11.69-8.06-9.76-5.23-19.64-10.24-29.68-14.91-9-4.21-18.27-8-27.55-11.67-6.72-2.64-13.73-4.58-20.5-7.13-11-4.14-21.94-8.59-33-12.75-6.34-2.4-13.08-3.92-19.16-6.84A209.24,209.24,0,0,0,90,77.2c-6.26-1.55-12.71-2.33-19.06-3.51-12.11-2.25-24.15-5-36.33-6.67C25.48,65.76,16.2,65.92,7,65.24,4.35,65,3.65,66,3.6,68.42,3.44,76.56,3,84.71,3,92.85c.11,23.12.42,46.25.64,69.38.05,5.85.21,11.7,0,17.54-.17,4.53-1.2,9-1.23,13.55-.17,20.83,0,41.66-.2,62.48-.06,7.77-.84,15.53-.89,23.29,0,5.72.79,11.45.86,17.17q.47,37.2.69,74.4.11,17.08-.17,34.17c-.23,15-.87,29.91-.89,44.87,0,16.88.52,33.75.72,50.63.21,17.6.44,35.2.43,52.8,0,12.7-.61,25.4-.56,38.1,0,10.29.88,20.58.94,30.88.06,9.45-.54,18.91-.66,28.36q-.3,23.26-.36,46.51C2.28,715.55,2.32,734.11,2.32,752.68Z"/><path d="M.72,941.76c10.61.07,21.21.1,31.81.21q22,.24,44,.59c3.77.07,7.54.42,11.31.64q-42.31,0-84.62-.05C2.35,943.15.37,944.3.72,941.76Z"/><path class="cls-4" d="M2.32,752.68c0-18.57,0-37.13,0-55.7q.07-23.25.36-46.51c.12-9.45.72-18.91.66-28.36-.06-10.3-.9-20.59-.94-30.88-.05-12.7.55-25.4.56-38.1,0-17.6-.22-35.2-.43-52.8-.2-16.88-.73-33.75-.72-50.63,0-15,.66-29.91.89-44.87q.25-17.08.17-34.17-.24-37.2-.69-74.4c-.07-5.72-.9-11.45-.86-17.17,0-7.76.83-15.52.89-23.29.16-20.82,0-41.65.2-62.48,0-4.52,1.06-9,1.23-13.55.21-5.84.05-11.69,0-17.54C3.43,139.1,3.12,116,3,92.85c0-8.14.43-16.29.59-24.43C3.65,66,4.35,65,7,65.24c9.18.68,18.46.52,27.55,1.78,12.18,1.69,24.22,4.42,36.33,6.67,6.35,1.18,12.8,2,19.06,3.51a209.24,209.24,0,0,1,40.47,14.11c6.08,2.92,12.82,4.44,19.16,6.84,11,4.16,21.93,8.61,33,12.75,6.77,2.55,13.78,4.49,20.5,7.13,9.28,3.65,18.52,7.46,27.55,11.67,10,4.67,19.92,9.68,29.68,14.91,4.15,2.22,7.76,5.42,11.69,8.06,1.47,1,3.28,1.47,4.73,2.47,9,6.21,18.88,11.2,26.67,19.14,1.18,1.2,3.09,1.66,4.61,2.55a168,168,0,0,1,31.19,23.39c5.35,5.08,10.13,10.75,15.33,16,2.23,2.24,5,3.93,7.34,6.08,3.47,3.22,6.73,6.67,10.17,9.93,9.48,9,17,19.49,24.78,29.94,5.1,6.86,8.18,14.38,11.5,22,1.78,4.09,5.06,7.5,7.07,11.51,5,10,9.61,20.11,14.42,30.17,2.52,5.26,5.13,10.48,7.68,15.72a6.3,6.3,0,0,1,.83,2.32,24.74,24.74,0,0,0,3.56,11.43c2.45,4.41,3.81,9.47,5.24,14.37,1.2,4.07,1.62,8.37,2.76,12.46,1.68,6,3.8,11.87,5.5,17.87.8,2.82.32,6.23,1.72,8.6,2.52,4.25,1.52,8.79,2.25,13.14,1.36,8,2.19,16.14,3.17,24.23.91,7.49,2,15,2.5,22.5.23,3.38-2.25,7.92-.78,10,2.52,3.56,1.73,6.58,1.38,10,0,.36-.39.81-.27,1,3.27,5.75-.2,11.41-.57,17-.48,7.33-3.4,14.49-4.06,21.83-.49,5.47-3.28,10.33-2.42,16.27A24.5,24.5,0,0,1,454,562.25a9.87,9.87,0,0,0-1.19,2.94c-1.48,5.23-2.63,10.57-4.44,15.67a104.75,104.75,0,0,1-7.1,16.57c-1.92,3.38-2.95,6.86-4.26,10.39-1.4,3.8-4.1,7.17-6.49,10.55-2.86,4.06-5.94,8-9,11.87-1.69,2.13-3.68,4-5.37,6.15a102.44,102.44,0,0,0-6.78,9.18c-3.76,6-6.38,13-11.08,18.18-6.29,6.86-12.23,14.3-20.92,18.84-4.95,2.58-8.93,7-13.49,10.36-5.63,4.19-11.52,8-17.11,12.29-6.3,4.78-13.62,7.2-20.95,9.62-1.9.63-4,.54-5.94,1.15-7.3,2.34-14.63,4.44-21.07,9-3.38,2.42-7.75,3.5-11.73,5.05-6,2.35-11.86,5.38-18.08,6.63a75,75,0,0,0-16.32,5.55c-1.15.52-2.58.38-3.83.72-2.83.75-5.63,1.57-8.42,2.42-8.16,2.52-16.19,5.62-24.5,7.46-12.07,2.68-24.35,4.39-36.51,6.65-8.87,1.66-17.65,3.86-26.56,5.26-8.19,1.27-16.52,1.64-24.74,2.71-4.84.63-9.56,2.2-14.4,2.71-9.85,1-19.75,1.54-29.61,2.42-7.37.65-14.72,1.56-22.09,2.3-14.73,1.5-29.46,2.95-44.18,4.44-2.62.27-5.23.68-7.85,1-4.45.47-6.28-1-6.34-5.38-.1-7.43,0-14.86,0-22.28Z"/></svg>