<svg xmlns="http://www.w3.org/2000/svg" viewBox="0 0 666 507.7"><title>Asset 2</title><g id="Layer_2" data-name="Layer 2"><g id="shapes_bw_Image" data-name="shapes bw Image"><path d="M0,0H666V439.2c-.88.31-1.77.59-2.62.95-6.25,2.61-12.35,5.67-18.75,7.78-12.88,4.25-25.94,7.91-38.87,12-4.82,1.51-9.4,3.78-14.24,5.16-14.43,4.12-28.95,7.95-43.41,11.95a12,12,0,0,0-3,1.67c-1.06.67-2,1.84-3.13,2.09-5.93,1.3-11.93,2.29-17.88,3.53-10.25,2.15-20.43,4.72-30.75,6.51-9.75,1.69-19.64,2.58-29.45,3.89q-23.75,3.18-47.46,6.47c-2.73.38-6.47,0-7.92,1.57-2.62,2.9-5.77,2.42-8.5,2.59q-25.1,1.5-50.22,2.21c-10.55.31-21.11.1-31.67,0-23-.14-46-.37-69-.5-3.79,0-7.62.66-11.38.33-7.1-.64-14.16-1.82-21.25-2.68-5.67-.7-11.45-.79-17-2-8.81-1.88-17.5-4.37-26.2-6.76-5.81-1.59-12-2.54-17.24-5.34-13.11-7.07-25.75-15-38.56-22.65a13,13,0,0,1-3.49-2.46c-11.08-13.61-22.15-27.23-33.07-41-3.62-4.55-7.35-9.16-10-14.29-3.14-6.07-5.09-12.76-7.71-19.13C56,373.68,48,356.53,43.41,338.1c-2.4-9.65-5.28-19.19-7.36-28.91-2.28-10.68-3.87-21.51-5.78-32.28-1.43-8.06-3.18-16.09-4.28-24.2-1.53-11.34-2.64-22.74-3.82-34.13Q20.34,200.78,18.74,183c-.66-7.38-.91-14.8-1.71-22.16-.89-8.17-2.29-16.29-3.31-24.46-1.56-12.63-3.13-25.27-4.43-37.94C7.73,83.18,6.44,68,5,52.72,4.26,44.28,3.5,35.84,2.7,27.4,1.82,18.26.9,9.13,0,0Z"/></g></g></svg>