<svg xmlns="http://www.w3.org/2000/svg" viewBox="0 0 465.39 715.21"><title>Asset 1</title><g id="Layer_2" data-name="Layer 2"><g id="shapes_bw_Image" data-name="shapes bw Image"><path d="M1,687.47c0-18.57-.05-37.13,0-55.7q.07-23.25.36-46.51c.12-9.45.72-18.91.66-28.36C2,546.6,1.12,536.31,1.09,526c-.05-12.7.55-25.4.55-38.1,0-17.6-.21-35.2-.43-52.8C1,418.24.48,401.37.5,384.49c0-15,.65-29.91.88-44.87q.27-17.08.17-34.17-.23-37.2-.69-74.4C.79,225.33,0,219.6,0,213.88c.05-7.76.84-15.52.9-23.29.16-20.82,0-41.65.19-62.48,0-4.52,1.07-9,1.23-13.55.22-5.84.06-11.69,0-17.54-.21-23.13-.52-46.26-.63-69.38,0-8.14.43-16.29.59-24.43C2.32.83,3-.18,5.7,0c9.18.69,18.45.53,27.54,1.79C45.43,3.5,57.47,6.23,69.57,8.48c6.36,1.18,12.81,2,19.07,3.51A208.91,208.91,0,0,1,129.1,26.1c6.08,2.92,12.82,4.44,19.17,6.84,11,4.16,21.93,8.61,32.95,12.75,6.78,2.55,13.78,4.49,20.51,7.13,9.28,3.65,18.51,7.46,27.55,11.67,10,4.67,19.92,9.68,29.68,14.91,4.14,2.22,7.75,5.42,11.68,8.06,1.47,1,3.28,1.47,4.74,2.47,9,6.21,18.88,11.2,26.67,19.14,1.18,1.2,3.08,1.66,4.6,2.55A168.06,168.06,0,0,1,337.85,135c5.35,5.08,10.12,10.75,15.33,16,2.23,2.24,5,3.93,7.33,6.08,3.48,3.22,6.74,6.67,10.18,9.93,9.48,9,17,19.49,24.78,29.94,5.09,6.86,8.17,14.38,11.49,22,1.78,4.09,5.07,7.5,7.08,11.51,5,10,9.6,20.11,14.41,30.17,2.52,5.26,5.14,10.48,7.69,15.72a6.28,6.28,0,0,1,.82,2.32,24.75,24.75,0,0,0,3.57,11.43c2.44,4.41,3.8,9.47,5.24,14.37,1.2,4.07,1.62,8.37,2.76,12.46,1.67,6,3.8,11.87,5.5,17.87.8,2.82.32,6.23,1.72,8.6,2.52,4.25,1.51,8.79,2.25,13.14,1.36,8,2.19,16.14,3.17,24.22.91,7.5,2,15,2.49,22.51.23,3.38-2.25,7.92-.77,10,2.51,3.56,1.72,6.58,1.37,10,0,.36-.39.81-.26,1,3.27,5.75-.21,11.41-.58,17-.48,7.34-3.39,14.5-4.06,21.84-.49,5.47-3.27,10.33-2.42,16.27A24.55,24.55,0,0,1,452.69,497,9.61,9.61,0,0,0,451.5,500c-1.48,5.23-2.64,10.57-4.45,15.67a103.84,103.84,0,0,1-7.1,16.57c-1.91,3.38-2.95,6.86-4.25,10.39-1.4,3.8-4.1,7.17-6.49,10.55-2.87,4.06-5.95,8-9,11.87-1.69,2.13-3.69,4-5.37,6.15a98.7,98.7,0,0,0-6.78,9.18c-3.77,6-6.38,13-11.08,18.18-6.29,6.86-12.23,14.3-20.93,18.84-4.95,2.58-8.92,7-13.48,10.36-5.64,4.19-11.52,8-17.11,12.29-6.3,4.78-13.62,7.2-20.95,9.62-1.9.63-4,.54-5.94,1.15-7.3,2.34-14.63,4.44-21.07,9.05-3.39,2.42-7.76,3.5-11.73,5-6,2.35-11.86,5.38-18.08,6.63a75,75,0,0,0-16.33,5.55c-1.15.52-2.57.38-3.83.72-2.82.75-5.63,1.57-8.42,2.42-8.16,2.52-16.19,5.62-24.5,7.46-12.06,2.68-24.34,4.38-36.5,6.65-8.87,1.66-17.65,3.86-26.56,5.26-8.19,1.27-16.52,1.64-24.75,2.71-4.83.63-9.56,2.2-14.4,2.71-9.84,1-19.74,1.54-29.6,2.42-7.38.65-14.73,1.56-22.09,2.3-14.73,1.5-29.46,2.95-44.19,4.44-2.62.27-5.22.68-7.84,1-4.46.47-6.29-1-6.35-5.38-.1-7.43,0-14.86,0-22.28Z"/></g></g></svg>