<svg xmlns="http://www.w3.org/2000/svg" viewBox="0 0 701.28 434.05"><title>Asset 3</title><g id="Layer_2" data-name="Layer 2"><g id="shapes_bw_Image" data-name="shapes bw Image"><path d="M701.28,8.53V434.05H0a21.45,21.45,0,0,1,3.43-.54c8.36-.05,16.72,0,25,0,2-8.84,4-17.24,5.83-25.67,1.23-5.63,2.56-11.27,3.27-17,.74-6,2.07-11.89.92-18.18-1.07-5.88-.54-12.06-.66-18.1-.09-4.59-.08-9.18-.17-13.77-.12-6.12-.14-12.25-.51-18.36-.41-6.95-1.2-13.88-1.76-20.83-.12-1.48.16-3,.06-4.47-.71-10.84-1.49-21.68-2.2-32.53-.11-1.55,0-3.12,0-4.68-.13-6.12,0-12.27-.5-18.37-.4-5.26-1.88-10.45-2.06-15.69-.21-6.15,1.26-12.33-.32-18.49a31.4,31.4,0,0,1-1.14-7c-.05-1.81.86-3.62,1-5.45.35-6,.42-12.1.82-18.13.33-5,1.19-10,1.36-15,.07-2-1.38-3.9-1.65-5.92-.38-2.89,0-5.89-.51-8.76-1.53-9.17-3.85-18.24-4.82-27.45-.72-6.8.2-13.76.39-20.65a14.84,14.84,0,0,0,.12-1.75c-.43-4.81-1-9.62-1.31-14.45-.36-5.79-.43-11.59-.72-17.38s-.69-11.5-1-17.26c0-.56,0-1.13,0-1.7-.37-5.08-.71-10.16-1.16-15.24-.14-1.59-.7-3.14-.91-4.73-.34-2.63-.68-5.28-.78-7.92-.15-4.43-.12-8.86-.16-13.57C27.35,4.58,36,4,44.65,3.51c7.16-.36,14.34-.42,21.5-.78C84.29,1.83,102.42.4,120.57,0c13.37-.27,26.77,1.18,40.15,1.22,22.49.05,45-.55,67.47-.59,13.17,0,26.33.55,39.5.76,5.83.1,11.67-.2,17.49,0,11.24.34,22.46,1.26,33.69,1.27,14.22,0,28.44-.59,42.65-1,4.16-.13,8.32-1,12.45-.87,8.44.35,16.84,1.47,25.28,1.75,7.27.25,14.58-.56,21.84-.29,7.85.29,15.66,1.63,23.5,1.9,14.35.5,28.71.64,43.07.75,5.24,0,10.49-.65,15.73-.54,4.72.1,9.42,1.1,14.15,1.25,12.67.39,25.35.42,38,.82,6.85.22,13.69,1.2,20.54,1.27s13.77-.53,20.75-.15c14.8.78,29.67.24,44.52.39,7.25.08,14.51.46,21.76.77a13.69,13.69,0,0,1,2.74.72c1.65.42,3.29,1.21,4.94,1.2,5.3,0,10.6-.37,15.91-.55,1.91-.07,3.83,0,5.74,0l-.06-.36Z"/></g></g></svg>